<svg xmlns="http://www.w3.org/2000/svg" height="20px" viewBox="0 -960 960 960" width="20px" fill="#fff">
  <!-- Folder body with Talk icon as evenodd cutout (compound path, coordinates pre-transformed) -->
  <path fill-rule="evenodd" d="M168-192q-29 0-50.5-21.5T96-264v-432q0-30 21.5-51t50.5-21h216l96 96h312q30 0 51 21t21 51v336q0 29-21 50.5T792-192H168ZM478.982-601.523a157.484 157.486 0 0 0-157.482 157.491 157.484 157.486 0 0 0 157.482 157.486 157.484 157.486 0 0 0 81.693-23.04c19.355 7.691 62.71 30.51 73.028 20.654 10.782-10.297-12.659-58.761-18.279-76.77a157.484 157.486 0 0 0 21.038-78.331 157.484 157.486 0 0 0-157.48-157.484zm0.018 59.875a97.65 97.652 0 0 1 97.65 97.652 97.65 97.652 0 0 1-97.65 97.646 97.65 97.652 0 0 1-97.65-97.646 97.65 97.652 0 0 1 97.65-97.652z"/>
</svg>
